# xmcd
#
# Track frame offsets:
#	150
#	18720
#	36160
#
# Disc length: 752 seconds
#
# Revision: 1
# Processed by: cddbd v1.5.1PL0 Copyright (c) Steve Scherf et al.
# Submitted via: CDex 1.50Beta5
#
DISCID=1f02ee03
DTITLE=Milco. - Milco.
DYEAR=2003
DGENRE=Rock
TTITLE0=Splutter '77
TTITLE1=君を忘れない
TTITLE2=マリッジ・ブルー
EXTD=All instruments and programming:Milco.  except "Splutter '77"
EXTT0=
EXTT1=
EXTT2=
PLAYORDER=
